<?xml version="1.0" standalone="no"?>
<!DOCTYPE svg PUBLIC "-//W3C//DTD SVG 20010904//EN"
 "http://www.w3.org/TR/2001/REC-SVG-20010904/DTD/svg10.dtd">
<svg version="1.0" xmlns="http://www.w3.org/2000/svg"
 width="640.000000pt" height="640.000000pt" viewBox="0 0 640.000000 640.000000"
 preserveAspectRatio="xMidYMid meet">
<metadata>
Created by potrace 1.14, written by Peter Selinger 2001-2017
</metadata>
<g transform="translate(0.000000,640.000000) scale(0.100000,-0.100000)"
fill="#000000" stroke="none">
<path d="M1540 3399 c0 -1714 4 -2796 10 -2848 5 -46 14 -99 21 -118 13 -42
61 -70 93 -55 36 18 115 52 120 52 3 0 29 11 58 24 29 13 78 33 110 44 31 12
76 30 100 41 23 11 95 40 158 66 63 26 124 51 135 56 29 12 342 139 395 159
57 22 269 108 295 120 11 5 67 28 125 51 58 23 157 63 220 89 142 58 145 59
200 80 52 20 265 106 295 120 11 5 88 36 170 70 83 34 159 65 170 70 11 4 112
45 225 90 440 175 506 203 520 216 13 13 15 99 12 682 -2 367 -7 852 -12 1077
-6 226 -10 613 -10 860 -1 445 -8 589 -32 611 -7 6 -42 21 -78 33 -36 13 -74
27 -85 31 -11 5 -47 18 -80 29 -124 41 -226 79 -232 85 -4 3 -13 6 -21 6 -8 0
-28 6 -45 14 -18 8 -72 29 -122 46 -126 44 -146 51 -180 66 -16 6 -91 33 -165
59 -74 26 -144 51 -155 55 -11 5 -51 20 -90 34 -38 13 -122 43 -185 66 -63 23
-146 53 -185 66 -38 14 -79 29 -90 33 -11 5 -56 22 -100 37 -44 15 -93 32
-110 39 -32 13 -141 52 -290 105 -49 17 -99 35 -110 40 -22 9 -215 79 -360
130 -49 18 -155 56 -235 85 -210 76 -379 133 -422 141 l-38 6 0 -2763z m840
1999 c214 -78 315 -114 583 -208 99 -35 185 -69 192 -76 10 -10 13 -137 14
-585 0 -315 2 -574 5 -576 2 -2 28 6 57 17 68 27 286 38 399 21 258 -40 453
-135 550 -266 72 -98 118 -213 145 -365 16 -88 27 -413 40 -1162 7 -372 6
-388 -11 -394 -11 -4 -102 -40 -204 -80 -101 -40 -187 -71 -189 -68 -3 3 -9
324 -13 713 -5 567 -10 724 -22 787 -42 220 -110 305 -271 340 -106 23 -242
-17 -322 -94 -71 -69 -128 -223 -142 -381 -6 -58 -13 -449 -17 -867 -3 -419
-9 -766 -13 -771 -6 -10 -132 -54 -670 -235 -178 -60 -326 -106 -330 -103 -3
4 -8 1004 -9 2222 -4 2151 -3 2216 15 2208 10 -4 106 -39 213 -77z"/>
</g>
</svg>
